<?xml version="1.0" standalone="no"?>
<!DOCTYPE svg PUBLIC "-//W3C//DTD SVG 20010904//EN"
 "http://www.w3.org/TR/2001/REC-SVG-20010904/DTD/svg10.dtd">
<svg version="1.0" xmlns="http://www.w3.org/2000/svg"
 width="920.000000pt" height="981.000000pt" viewBox="0 0 920.000000 981.000000"
 preserveAspectRatio="xMidYMid meet">

<g transform="translate(0.000000,981.000000) scale(0.100000,-0.100000)"
fill="#000000" stroke="none">
<path d="M4510 9797 c-58 -16 -105 -45 -152 -94 -23 -24 -326 -554 -837 -1465
l-801 -1426 457 -779 c251 -428 468 -803 482 -833 l26 -55 3 -1906 2 -1907
284 -211 285 -211 3 -318 c4 -274 7 -323 22 -365 25 -66 104 -150 174 -184 49
-24 69 -28 142 -28 73 0 93 4 142 28 70 34 149 118 174 184 15 42 18 91 22
365 l3 318 285 211 284 211 2 1906 3 1907 21 45 c11 25 229 400 483 834 l462
788 -801 1427 c-580 1031 -813 1438 -843 1469 -23 24 -65 54 -93 68 -62 30
-168 40 -234 21z m300 -2153 c240 -45 475 -173 672 -365 117 -115 143 -168
143 -294 0 -73 -4 -99 -23 -136 -36 -74 -87 -125 -160 -161 -58 -29 -76 -33
-147 -33 -109 0 -166 28 -283 137 -153 143 -259 192 -407 192 -73 -1 -103 -6
-159 -27 -99 -39 -177 -89 -266 -173 -43 -40 -102 -85 -132 -101 -47 -24 -64
-28 -143 -28 -78 0 -97 4 -146 28 -63 31 -126 93 -160 159 -17 32 -24 66 -27
130 -4 81 -2 91 26 153 54 115 250 284 459 397 93 50 238 102 343 123 93 19
310 18 410 -1z"/>
<path d="M1665 4934 l-670 -1195 -5 488 -5 488 -28 56 c-30 63 -92 125 -159
161 -37 20 -58 23 -143 23 -89 0 -106 -3 -150 -27 -70 -36 -137 -112 -164
-181 l-21 -58 0 -1152 c1 -1077 2 -1155 18 -1202 25 -68 661 -1101 709 -1149
51 -52 130 -87 207 -93 45 -3 270 28 881 121 451 70 834 129 850 132 l30 5 -5
1822 -5 1822 -328 560 c-181 308 -332 563 -335 567 -4 3 -308 -531 -677 -1188z"/>
<path d="M6526 5557 l-336 -574 0 -1816 0 -1815 28 -6 c15 -3 398 -62 852
-132 619 -94 839 -125 883 -121 74 7 150 44 203 99 55 56 693 1096 711 1157
11 39 13 250 11 1211 l-3 1165 -26 50 c-34 63 -99 128 -158 156 -69 33 -189
37 -263 9 -75 -28 -150 -96 -185 -168 l-28 -57 -5 -487 -5 -487 -610 1086
c-335 597 -637 1135 -671 1195 l-61 109 -337 -574z"/>
</g>
</svg>
